<svg xmlns="http://www.w3.org/2000/svg" xmlns:xlink="http://www.w3.org/1999/xlink" width="50px" height="28px" viewBox="0 0 32 18" version="1.1">
    <g stroke-width="1" fill-rule="evenodd">
        <g transform="translate(-9.000000, -16.000000)">
            <g transform="translate(9.000000, 16.000000)">
                <polygon fill="#14C854" points="0.012 17.5969565 32 17.5969565 32 0 0.012 0"/>
                <path d="M15.4802,13.6414565 C15.4802,13.6831304 15.4518,13.710913 15.4092,13.710913 L9.0498,13.710913 C9.0072,13.710913 8.9788,13.6831304 8.9788,13.6414565 L8.9788,12.360913 C8.9788,12.2775652 9.0072,12.2218043 9.0498,12.1801304 L12.8626,8.47819565 C13.1044,8.25534783 13.8014,7.60147826 13.7874,6.8358913 C13.773,6.18182609 13.332,5.319 12.2224,5.319 C11.2692,5.319 10.6716,6.11217391 10.6716,6.8358913 C10.6716,6.87776087 10.6432,6.90554348 10.6006,6.90554348 L9.0498,6.90554348 C9.0072,6.90554348 8.9788,6.87776087 8.9788,6.8358913 C8.9788,5.11023913 10.3302,3.77413043 12.2224,3.77413043 C14.271,3.77413043 15.4944,5.12413043 15.4944,6.8358913 C15.4944,8.26943478 14.5982,9.14615217 14.086,9.60534783 L11.383,12.054913 C11.3404,12.096587 11.3546,12.1801304 11.4256,12.1801304 L15.4092,12.1801304 C15.4518,12.1801304 15.4802,12.207913 15.4802,12.2497826 L15.4802,13.6414565" id="Fill-3" fill="#FFFFFF"/>
                <path d="M19.7208,3.77413043 C21.6272,3.77413043 22.9076,5.08245652 22.9076,6.66880435 C22.9076,7.74058696 22.239,8.38076087 21.7268,8.68695652 C21.6558,8.72863043 21.6698,8.79828261 21.7268,8.82606522 C22.239,9.07669565 23.0356,9.85597826 23.0356,11.0111087 C23.0356,12.5141087 21.9686,13.8363261 19.7208,13.8502174 C17.5442,13.8502174 16.4914,12.4446522 16.4914,10.8718043 C16.4914,10.8301304 16.5198,10.8023478 16.5626,10.8023478 L18.1276,10.8023478 C18.1702,10.8023478 18.1986,10.8301304 18.1986,10.8718043 C18.1986,11.3728696 18.6254,12.3192391 19.7208,12.3192391 C20.674,12.3192391 21.3284,11.6512826 21.3284,11.0111087 C21.3284,9.96730435 20.5602,9.5358913 19.7208,9.522 L19.2514,9.522 C19.2088,9.522 19.1804,9.49421739 19.1804,9.45234783 L19.1804,8.06067391 C19.1804,8.019 19.2088,7.99102174 19.2514,7.99102174 L19.7208,7.99102174 C20.4606,7.99102174 21.2004,7.60147826 21.2004,6.66880435 C21.2004,6.01493478 20.617,5.3051087 19.7208,5.3051087 C18.8388,5.3051087 18.2556,6.11217391 18.2556,6.8358913 C18.2556,6.87776087 18.227,6.90554348 18.1844,6.90554348 L16.6338,6.90554348 C16.591,6.90554348 16.5626,6.87776087 16.5626,6.8358913 C16.5626,5.11023913 17.8288,3.77413043 19.7208,3.77413043" id="Fill-4" fill="#FFFFFF"/>
            </g>
        </g>
    </g>
</svg>

